<svg width="36" height="33" viewBox="0 0 36 33" fill="none" xmlns="http://www.w3.org/2000/svg">
<path d="M8.18182 14.85H21.2727V18.15H8.18182V23.1L0 16.5L8.18182 9.9V14.85ZM6.54545 26.4H10.9767C12.8662 28.0803 15.1964 29.1751 17.6877 29.553C20.1789 29.931 22.7254 29.5762 25.0216 28.531C27.3178 27.4858 29.2662 25.7947 30.6328 23.6607C31.9995 21.5267 32.7265 19.0403 32.7265 16.5C32.7265 13.9597 31.9995 11.4733 30.6328 9.33931C29.2662 7.20527 27.3178 5.5142 25.0216 4.46902C22.7254 3.42385 20.1789 3.06896 17.6877 3.44695C15.1964 3.82494 12.8662 4.91975 10.9767 6.6H6.54545C8.06835 4.54934 10.0445 2.88505 12.317 1.73934C14.5895 0.593629 17.0957 -0.00192001 19.6364 4.65017e-06C28.674 4.65017e-06 36 7.38705 36 16.5C36 25.6129 28.674 33 19.6364 33C17.0957 33.0019 14.5895 32.4064 12.317 31.2607C10.0445 30.115 8.06835 28.4507 6.54545 26.4Z" fill="white"/>
</svg>
