<svg width="34" height="26" viewBox="0 0 34 26" fill="none" xmlns="http://www.w3.org/2000/svg">
<path d="M23.4482 20.2977L27.3648 16.3114L31.2814 20.2977L33.71 17.8366L29.7763 13.8675L33.71 9.89847L31.2814 7.43731L27.3648 11.4237L23.4482 7.43731L21.0196 9.89847L24.9362 13.8675L21.0196 17.8366L23.4482 20.2977ZM17.103 6.93468C17.1241 6.01841 16.9615 5.10733 16.6252 4.25655C16.2888 3.40577 15.7857 2.63297 15.1462 1.9849C14.5066 1.33682 13.7441 0.826933 12.9045 0.486081C12.065 0.145229 11.166 -0.0195067 10.2618 0.00183821C9.35764 -0.0195067 8.4586 0.145229 7.61907 0.486081C6.77954 0.826933 6.01695 1.33682 5.37744 1.9849C4.73793 2.63297 4.23479 3.40577 3.89844 4.25655C3.56209 5.10733 3.39954 6.01841 3.4206 6.93468C3.39954 7.85095 3.56209 8.76203 3.89844 9.61281C4.23479 10.4636 4.73793 11.2364 5.37744 11.8845C6.01695 12.5325 6.77954 13.0424 7.61907 13.3833C8.4586 13.7241 9.35764 13.8889 10.2618 13.8675C11.166 13.8889 12.065 13.7241 12.9045 13.3833C13.7441 13.0424 14.5066 12.5325 15.1462 11.8845C15.7857 11.2364 16.2888 10.4636 16.6252 9.61281C16.9615 8.76203 17.1241 7.85095 17.103 6.93468ZM6.8412 6.93468C6.8192 6.47356 6.89262 6.01288 7.05674 5.58222C7.22086 5.15156 7.47205 4.76044 7.79417 4.434C8.1163 4.10756 8.50224 3.853 8.92721 3.68669C9.35218 3.52037 9.80677 3.44597 10.2618 3.46826C10.7168 3.44597 11.1714 3.52037 11.5964 3.68669C12.0214 3.853 12.4073 4.10756 12.7294 4.434C13.0515 4.76044 13.3027 5.15156 13.4669 5.58222C13.631 6.01288 13.7044 6.47356 13.6824 6.93468C13.7044 7.3958 13.631 7.85649 13.4669 8.28715C13.3027 8.71781 13.0515 9.10892 12.7294 9.43536C12.4073 9.7618 12.0214 10.0164 11.5964 10.1827C11.1714 10.349 10.7168 10.4234 10.2618 10.4011C9.80677 10.4234 9.35218 10.349 8.92721 10.1827C8.50224 10.0164 8.1163 9.7618 7.79417 9.43536C7.47205 9.10892 7.22086 8.71781 7.05674 8.28715C6.89262 7.85649 6.8192 7.3958 6.8412 6.93468ZM3.4206 24.2668C3.4206 22.8878 3.96117 21.5652 4.9234 20.5901C5.88563 19.615 7.1907 19.0672 8.5515 19.0672H11.9721C13.3329 19.0672 14.638 19.615 15.6002 20.5901C16.5624 21.5652 17.103 22.8878 17.103 24.2668V26H20.5236V24.2668C20.5236 23.1287 20.3024 22.0018 19.8727 20.9504C19.4429 19.899 18.813 18.9437 18.0189 18.139C17.2248 17.3342 16.2821 16.6959 15.2446 16.2604C14.2071 15.8249 13.0951 15.6007 11.9721 15.6007H8.5515C6.2835 15.6007 4.10839 16.5138 2.50468 18.139C0.900959 19.7642 0 21.9684 0 24.2668V26H3.4206V24.2668Z" fill="#F15025"/>
</svg>
