<svg width="30" height="25" viewBox="0 0 30 25" fill="none" xmlns="http://www.w3.org/2000/svg">
<path d="M29.8573 9.64428C29.9992 9.35483 30.0363 9.03633 29.9639 8.72906C29.8915 8.4218 29.7128 8.13959 29.4504 7.91813L20.0755 0L17.4243 2.23925L23.5986 7.45412H0.000217222V10.6214H28.1248C28.4956 10.6215 28.8581 10.5287 29.1665 10.3547C29.4749 10.1808 29.7153 9.93358 29.8573 9.64428ZM0.142716 14.7657C0.00077111 15.0552 -0.0363369 15.3737 0.0360877 15.6809C0.108512 15.9882 0.287215 16.2704 0.549585 16.4919L9.92445 24.41L12.5757 22.1708L6.40137 16.9559H29.9998V13.7886H1.87519C1.50433 13.7883 1.14171 13.881 0.833291 14.055C0.52487 14.2289 0.284526 14.4763 0.142716 14.7657Z" fill="#540D6E"/>
</svg>
